<?xml version="1.0" encoding="UTF-8" standalone="no"?>
<svg width="140px" height="140px" viewBox="0 0 140 140" version="1.1" xmlns="http://www.w3.org/2000/svg" xmlns:xlink="http://www.w3.org/1999/xlink" xmlns:sketch="http://www.bohemiancoding.com/sketch/ns">
    <!-- Generator: Sketch 3.4 (15588) - http://www.bohemiancoding.com/sketch -->
    <title>clear</title>
    <desc>Created with Sketch.</desc>
    <defs></defs>
    <g id="Page-1" stroke="none" stroke-width="1" fill="none" fill-rule="evenodd" sketch:type="MSPage">
        <g id="Sun" sketch:type="MSLayerGroup" fill="#FFFFFF">
            <g id="Layer_1" sketch:type="MSShapeGroup">
                <path d="M134.160187,75.8278957 L122.498396,75.8278957 C119.275215,75.8278957 116.664584,73.2172645 116.664584,69.997 C116.664584,66.7767355 119.275215,64.1631874 122.498396,64.1631874 L134.160187,64.1631874 C137.383369,64.1631874 139.994,66.7767355 139.994,69.997 C139.994,73.2172645 137.386286,75.8278957 134.160187,75.8278957 L134.160187,75.8278957 Z M111.247889,37.0009562 C108.969785,39.27906 105.271148,39.27906 102.998878,37.0009562 C100.720774,34.7228524 100.720774,31.030049 102.998878,28.7519452 L111.247889,20.5029342 C113.520159,18.2248304 117.218796,18.2248304 119.4969,20.5029342 C121.76917,22.781038 121.76917,26.4738414 119.4969,28.7519452 L111.247889,37.0009562 L111.247889,37.0009562 Z M69.9999169,104.994042 C50.669579,104.994042 34.9970415,89.324421 34.9970415,69.997 C34.9970415,50.6666621 50.6666621,34.9970415 69.9999169,34.9970415 C89.3302548,34.9970415 104.996958,50.6666621 104.996958,69.997 C104.996958,89.324421 89.3302548,104.994042 69.9999169,104.994042 L69.9999169,104.994042 Z M69.9999169,46.6646667 C57.113025,46.6646667 46.6646667,57.1101081 46.6646667,69.997 C46.6646667,82.880975 57.1159419,93.3293333 69.9999169,93.3293333 C82.8838919,93.3293333 93.3293333,82.880975 93.3293333,69.997 C93.3293333,57.1101081 82.8868089,46.6646667 69.9999169,46.6646667 L69.9999169,46.6646667 Z M69.9999169,23.3323333 C66.7767355,23.3323333 64.1661043,20.7187853 64.1661043,17.4985208 L64.1661043,5.83381256 C64.1661043,2.61354803 66.7767355,-1.0658141e-14 69.9999169,-1.0658141e-14 C73.2201814,-1.0658141e-14 75.8337295,2.61354803 75.8337295,5.83381256 L75.8337295,17.4985208 C75.8337295,20.7187853 73.2172645,23.3323333 69.9999169,23.3323333 L69.9999169,23.3323333 Z M28.7519452,37.0009562 L20.5029342,28.7519452 C18.2248304,26.4738414 18.2248304,22.781038 20.5029342,20.5029342 C22.781038,18.2248304 26.4738414,18.2248304 28.7519452,20.5029342 L37.0009562,28.7519452 C39.27906,31.030049 39.27906,34.7228524 37.0009562,37.0009562 C34.7228524,39.27906 31.030049,39.27906 28.7519452,37.0009562 L28.7519452,37.0009562 Z M23.3323333,69.997 C23.3323333,73.2172645 20.7187853,75.8278957 17.4985208,75.8278957 L5.83089565,75.8278957 C2.61063112,75.8278957 -1.0658141e-14,73.2172645 -1.0658141e-14,69.997 C-1.0658141e-14,66.7767355 2.61354803,64.1631874 5.83089565,64.1631874 L17.4985208,64.1631874 C20.7217022,64.1631874 23.3323333,66.7767355 23.3323333,69.997 L23.3323333,69.997 Z M28.7519452,102.993044 C31.030049,100.717857 34.7228524,100.717857 37.0009562,102.993044 C39.27906,105.271148 39.27906,108.966868 37.0009562,111.242055 L28.7519452,119.491066 C26.4738414,121.76917 22.781038,121.76917 20.5029342,119.491066 C18.2248304,117.215879 18.2248304,113.520159 20.5029342,111.242055 L28.7519452,102.993044 L28.7519452,102.993044 Z M69.9999169,116.661667 C73.2201814,116.661667 75.8337295,119.272298 75.8337295,122.492562 L75.8337295,134.160187 C75.8337295,137.380452 73.2201814,139.994 69.9999169,139.994 C66.7767355,139.994 64.1661043,137.380452 64.1661043,134.160187 L64.1661043,122.492562 C64.1661043,119.272298 66.7767355,116.661667 69.9999169,116.661667 L69.9999169,116.661667 Z M111.247889,102.993044 L119.4969,111.242055 C121.76917,113.520159 121.76917,117.215879 119.4969,119.491066 C117.218796,121.76917 113.520159,121.76917 111.247889,119.491066 L102.998878,111.242055 C100.720774,108.966868 100.720774,105.271148 102.998878,102.993044 C105.271148,100.71494 108.966868,100.71494 111.247889,102.993044 L111.247889,102.993044 Z" id="clear"></path>
            </g>
        </g>
    </g>
</svg>