<?xml version="1.0" encoding="UTF-8" standalone="no"?>
<svg width="155px" height="137px" viewBox="0 0 155 137" version="1.1" xmlns="http://www.w3.org/2000/svg" xmlns:xlink="http://www.w3.org/1999/xlink" xmlns:sketch="http://www.bohemiancoding.com/sketch/ns">
    <!-- Generator: Sketch 3.4 (15588) - http://www.bohemiancoding.com/sketch -->
    <title>few-clouds</title>
    <desc>Created with Sketch.</desc>
    <defs></defs>
    <g id="Page-1" stroke="none" stroke-width="1" fill="none" fill-rule="evenodd" sketch:type="MSPage">
        <path d="M149.258515,74.2029425 L137.775545,74.2029425 C134.606245,74.2029425 132.03406,71.6482559 132.03406,68.4941456 C132.03406,65.3428897 134.606245,62.7910575 137.775545,62.7910575 L149.258515,62.7910575 C152.427815,62.7910575 155,65.3457441 155,68.4941456 C155,71.6482559 152.427815,74.2029425 149.258515,74.2029425 L149.258515,74.2029425 Z M126.703091,36.2051901 C124.461041,38.4344754 120.826681,38.4344754 118.584631,36.2051901 C116.342581,33.9787593 116.342581,30.3622365 118.584631,28.1358057 L126.703091,20.0635668 C128.945141,17.8342816 132.579501,17.8342816 134.821551,20.0635668 C137.063601,22.2899976 137.063601,25.9065205 134.821551,28.1358057 L126.703091,36.2051901 L126.703091,36.2051901 Z M118.243013,80.753787 L118.243013,80.753787 C123.263942,86.7080622 126.298316,94.3692677 126.298316,102.746927 C126.298316,121.657317 110.876688,136.994 91.8522771,136.994 L45.9261386,136.994 C20.5631286,136.994 7.10542736e-15,116.550798 7.10542736e-15,91.3293333 C7.10542736e-15,66.1078685 20.5631286,45.6646667 45.9261386,45.6646667 C50.4389458,45.6646667 54.7967329,46.3268871 58.9105069,47.5314433 C65.2117867,39.4620588 75.0383383,34.2470728 86.1107921,34.2470728 C105.135203,34.2470728 120.556831,49.5837558 120.556831,68.4941456 C120.553961,72.8185593 119.712833,76.9460195 118.243013,80.753787 L118.243013,80.753787 Z M11.4800993,91.3293333 C11.4800993,110.245432 26.8988573,125.576406 45.9232678,125.576406 L91.8494064,125.576406 C104.532347,125.576406 114.812476,115.351951 114.812476,102.746927 C114.812476,90.1361948 104.532347,79.9117395 91.8494064,79.9117395 C87.2562184,79.9117395 82.9989073,81.2875595 79.4104791,83.5967679 C75.8765951,68.4227856 62.2606634,57.0822605 45.9232678,57.0822605 C26.8988573,57.0822605 11.4800993,72.4132347 11.4800993,91.3293333 L11.4800993,91.3293333 Z M86.1079214,45.6646667 C79.757839,45.6646667 74.0077417,48.2279165 69.8537773,52.3696487 C76.5713148,56.4685649 82.154909,62.2258866 86.0131869,69.0792973 C87.9193599,68.7567503 89.8513696,68.4941456 91.8494064,68.4941456 C97.9497342,68.4941456 103.673995,70.0897543 108.64325,72.8528121 L108.64325,72.8528121 C108.918841,71.4427392 109.073861,69.986996 109.073861,68.4941456 C109.073861,55.889122 98.7908618,45.6646667 86.1079214,45.6646667 L86.1079214,45.6646667 Z M86.1079214,22.8294789 C82.9386217,22.8294789 80.3693071,20.2747923 80.3693071,17.1235364 L80.3693071,5.70879693 C80.3693071,2.55468663 82.9414924,-1.0658141e-14 86.1079214,-1.0658141e-14 C89.2800919,-1.0658141e-14 91.8494064,2.55468663 91.8494064,5.70879693 L91.8494064,17.1235364 C91.8494064,20.2776467 89.2829626,22.8294789 86.1079214,22.8294789 L86.1079214,22.8294789 Z M45.5156224,36.2051901 L37.4000333,28.1358057 C35.1579834,25.9065205 35.1579834,22.2899976 37.4000333,20.0635668 C39.6392125,17.8342816 43.2764432,17.8342816 45.5156224,20.0635668 L53.6340822,28.1358057 C55.8761321,30.3622365 55.8761321,33.9787593 53.6340822,36.2051901 C51.394903,38.4344754 47.7576723,38.4344754 45.5156224,36.2051901 L45.5156224,36.2051901 Z" id="few-clouds" fill="#FFFFFF" sketch:type="MSShapeGroup"></path>
    </g>
</svg>