<?xml version="1.0" encoding="UTF-8" standalone="no"?>
<svg width="132px" height="90px" viewBox="0 0 132 90" version="1.1" xmlns="http://www.w3.org/2000/svg" xmlns:xlink="http://www.w3.org/1999/xlink" xmlns:sketch="http://www.bohemiancoding.com/sketch/ns">
    <!-- Generator: Sketch 3.4 (15588) - http://www.bohemiancoding.com/sketch -->
    <title>fog</title>
    <desc>Created with Sketch.</desc>
    <defs></defs>
    <g id="Page-1" stroke="none" stroke-width="1" fill="none" fill-rule="evenodd" sketch:type="MSPage">
        <g id="Cloud-Fog-Alt" sketch:type="MSLayerGroup" fill="#FFFFFF">
            <g id="Layer_1" sketch:type="MSShapeGroup">
                <path d="M3.52232021,65.9969997 C2.73624875,64.0588235 2.1031912,62.0516411 1.57814347,59.9964542 L132,59.9964542 C132,62.0486408 131.789981,64.0408219 131.456951,65.9969997 L3.52232021,65.9969997 L3.52232021,65.9969997 Z M24.7822529,5.99754523 C31.6648786,2.18419856 39.5735976,-2.13162821e-14 47.9983635,-2.13162821e-14 C56.4171288,-2.13162821e-14 64.3078462,2.19019911 71.181471,5.99754523 L24.7822529,5.99754523 L24.7822529,5.99754523 Z M0.417037913,41.997818 C0.672061096,39.951632 1.07109737,37.9564506 1.57814347,36.0002728 L122.777162,36.0002728 C124.430312,37.8394399 125.894445,39.8436221 127.142558,41.997818 L0.417037913,41.997818 L0.417037913,41.997818 Z M3.52232021,29.9997272 C4.36539685,27.9205382 5.36148741,25.9223566 6.4745886,23.9991817 L89.5281389,23.9991817 C89.6481498,24.2032003 89.7801618,24.4042186 89.8971725,24.6142377 C91.8893536,24.2722066 93.9115374,23.9991817 95.996727,23.9991817 C103.350395,23.9991817 110.185017,26.213383 115.879535,29.9997272 L3.52232021,29.9997272 L3.52232021,29.9997272 Z M10.5639604,17.9986362 C12.3041186,15.829439 14.2392945,13.8342577 16.324484,11.9980907 L79.6962451,11.9980907 C81.7664333,13.8282571 83.6746068,15.8384399 85.4057642,17.9986362 L10.5639604,17.9986362 L10.5639604,17.9986362 Z M131.45395,53.9959087 L0.417037913,53.9959087 C0.171015547,52.0277298 0,50.0355487 0,47.9983635 L129.90581,47.9983635 C130.586872,49.9275389 131.108919,51.9317211 131.45395,53.9959087 L131.45395,53.9959087 Z M129.90581,71.9975452 C129.164742,74.0947359 128.240658,76.0989181 127.142558,77.9980907 L10.5639604,77.9980907 C9.04882262,76.1109192 7.69269934,74.1007364 6.4745886,71.9975452 L129.90581,71.9975452 L129.90581,71.9975452 Z M16.324484,83.9986362 L122.774161,83.9986362 C120.733976,86.272843 118.432767,88.3010274 115.876534,89.9961815 L24.7822529,89.9961815 C21.7339758,88.3100282 18.91972,86.2758433 16.324484,83.9986362 L16.324484,83.9986362 Z" id="fog"></path>
            </g>
        </g>
    </g>
</svg>