<?xml version="1.0" encoding="UTF-8" standalone="no"?>
<svg width="134px" height="133px" viewBox="0 0 134 133" version="1.1" xmlns="http://www.w3.org/2000/svg" xmlns:xlink="http://www.w3.org/1999/xlink" xmlns:sketch="http://www.bohemiancoding.com/sketch/ns">
    <!-- Generator: Sketch 3.4 (15588) - http://www.bohemiancoding.com/sketch -->
    <title>rain</title>
    <desc>Created with Sketch.</desc>
    <defs></defs>
    <g id="Page-1" stroke="none" stroke-width="1" fill="none" fill-rule="evenodd" sketch:type="MSPage">
        <g id="Cloud-Drizzle" sketch:type="MSLayerGroup" fill="#FFFFFF">
            <g id="Layer_1" sketch:type="MSShapeGroup">
                <path d="M109.320851,94.6210659 L109.320851,81.3767166 C116.537071,77.1896762 121.40734,69.4020835 121.40734,60.4566304 C121.40734,47.1004252 110.584521,36.2715598 97.2283152,36.2715598 C92.3852548,36.2715598 87.9049705,37.7256871 84.1260532,40.1744255 C80.4015523,24.1034461 66.0688748,12.0895122 48.8642201,12.0895122 C28.8299122,12.0895122 12.5926604,28.3297872 12.5926604,48.3640951 C12.5926604,59.0931971 17.2754947,68.7067627 24.6791494,75.3485877 L24.6791494,90.2042674 C10.2376391,81.8362329 0.500125014,66.2550011 0.500125014,48.3640951 C0.500125014,21.6516845 22.1518095,-2.13162821e-14 48.8642201,-2.13162821e-14 C67.0151157,-2.13162821e-14 82.81099,10.0126193 91.0822841,24.7987669 C93.089645,24.4571527 95.1211909,24.1790244 97.2283152,24.1790244 C117.262623,24.1790244 133.499875,40.4223225 133.499875,60.4566304 C133.499875,76.2404122 123.399585,89.6389414 109.320851,94.6210659 L109.320851,94.6210659 Z M42.8179524,60.4596536 C46.1554922,60.4596536 48.8642201,63.1653584 48.8642201,66.5059213 L48.8642201,78.5924103 C48.8642201,81.9329732 46.1554922,84.638678 42.8179524,84.638678 C39.4773896,84.638678 36.7716848,81.9329732 36.7716848,78.5924103 L36.7716848,66.5059213 C36.7716848,63.1623352 39.4773896,60.4596536 42.8179524,60.4596536 L42.8179524,60.4596536 Z M42.8179524,96.7312133 C46.1554922,96.7312133 48.8642201,99.4369181 48.8642201,102.777481 L48.8642201,114.86397 C48.8642201,118.204533 46.1554922,120.910238 42.8179524,120.910238 C39.4773896,120.910238 36.7716848,118.204533 36.7716848,114.86397 L36.7716848,102.777481 C36.7716848,99.433895 39.4773896,96.7312133 42.8179524,96.7312133 L42.8179524,96.7312133 Z M66.9969769,72.5461427 C70.3375398,72.5461427 73.0432445,75.2548706 73.0432445,78.5924103 L73.0432445,90.6849457 C73.0432445,94.0224854 70.3375398,96.7312133 66.9969769,96.7312133 C63.6594371,96.7312133 60.9567555,94.0224854 60.9567555,90.6849457 L60.9567555,78.5924103 C60.9567555,75.2548706 63.6624602,72.5461427 66.9969769,72.5461427 L66.9969769,72.5461427 Z M66.9969769,108.823749 C70.3375398,108.823749 73.0432445,111.529453 73.0432445,114.86397 L73.0432445,126.956505 C73.0432445,130.297068 70.3375398,133.002773 66.9969769,133.002773 C63.6594371,133.002773 60.9567555,130.297068 60.9567555,126.956505 L60.9567555,114.86397 C60.9567555,111.52643 63.6624602,108.823749 66.9969769,108.823749 L66.9969769,108.823749 Z M91.1820476,60.4596536 C94.5195873,60.4596536 97.2283152,63.1653584 97.2283152,66.5059213 L97.2283152,78.5924103 C97.2283152,81.9329732 94.5195873,84.638678 91.1820476,84.638678 C87.8414847,84.638678 85.1357799,81.9329732 85.1357799,78.5924103 L85.1357799,66.5059213 C85.1357799,63.1623352 87.8414847,60.4596536 91.1820476,60.4596536 L91.1820476,60.4596536 Z M91.1820476,96.7312133 C94.5195873,96.7312133 97.2283152,99.4369181 97.2283152,102.777481 L97.2283152,114.86397 C97.2283152,118.204533 94.5195873,120.910238 91.1820476,120.910238 C87.8414847,120.910238 85.1357799,118.204533 85.1357799,114.86397 L85.1357799,102.777481 C85.1357799,99.433895 87.8414847,96.7312133 91.1820476,96.7312133 L91.1820476,96.7312133 Z" id="rain"></path>
            </g>
        </g>
    </g>
</svg>