<?xml version="1.0" encoding="utf-8"?>
<!-- Generator: Adobe Illustrator 19.2.0, SVG Export Plug-In . SVG Version: 6.00 Build 0)  -->
<svg version="1.1" id="Layer_1" xmlns="http://www.w3.org/2000/svg" xmlns:xlink="http://www.w3.org/1999/xlink" x="0px" y="0px"
	 viewBox="0 0 75 75" style="enable-background:new 0 0 75 75;" xml:space="preserve">
<style type="text/css">
	.st0{fill:#FFFFFF;}
</style>
<g>
	<path class="st0" d="M73.5,66.5L54.4,47.4C57.9,42.5,60,36.5,60,30C60,13.5,46.5,0,30,0S0,13.5,0,30s13.5,30,30,30
		c6.5,0,12.5-2.1,17.4-5.6l19.1,19.1c1,1,2.3,1.5,3.5,1.5s2.6-0.5,3.5-1.5C75.5,71.6,75.5,68.4,73.5,66.5z M30,50c-11,0-20-9-20-20
		s9-20,20-20s20,9,20,20S41,50,30,50z"/>
</g>
</svg>
