<?xml version="1.0" encoding="UTF-8" standalone="no"?>
<svg width="129px" height="117px" viewBox="0 0 129 117" version="1.1" xmlns="http://www.w3.org/2000/svg" xmlns:xlink="http://www.w3.org/1999/xlink" xmlns:sketch="http://www.bohemiancoding.com/sketch/ns">
    <!-- Generator: Sketch 3.4 (15588) - http://www.bohemiancoding.com/sketch -->
    <title>snow</title>
    <desc>Created with Sketch.</desc>
    <defs></defs>
    <g id="Page-1" stroke="none" stroke-width="1" fill="none" fill-rule="evenodd" sketch:type="MSPage">
        <g id="Cloud-Snow" sketch:type="MSLayerGroup" fill="#FFFFFF">
            <g id="Layer_1" sketch:type="MSShapeGroup">
                <path d="M104.891395,91.2073747 L104.891395,78.4412563 C111.852878,74.4054028 116.544375,66.8931787 116.544375,58.2707308 C116.544375,45.4026232 106.109436,34.9647696 93.2355004,34.9647696 C88.5731426,34.9647696 84.2517197,36.363477 80.6092526,38.7267096 C77.0221511,23.2331118 63.2011741,11.6529806 46.6177502,11.6529806 C27.3068469,11.6529806 11.6558945,27.3097609 11.6558945,46.6206642 C11.6558945,56.9623566 16.1725537,66.2287928 23.3117891,72.6249649 L23.3117891,86.9500593 C9.39173702,78.8841802 -1.42108547e-14,63.8655601 -1.42108547e-14,46.6206642 C-1.42108547e-14,20.8727931 20.8727931,-2.13162821e-14 46.6177502,-2.13162821e-14 C64.1132479,-2.13162821e-14 79.3387601,9.65108068 87.311392,23.9062397 C89.2462705,23.5769607 91.2073747,23.3088751 93.2355004,23.3088751 C112.546404,23.3088751 128.20027,38.9656554 128.20027,58.2707308 C128.20027,73.490415 118.458856,86.3993182 104.891395,91.2073747 L104.891395,91.2073747 Z M40.7898029,69.9295393 C44.0097438,69.9295393 46.6177502,72.5404596 46.6177502,75.7574865 C46.6177502,78.9774274 44.0097438,81.5854338 40.7898029,81.5854338 C37.572776,81.5854338 34.9647696,78.9774274 34.9647696,75.7574865 C34.9647696,72.5404596 37.572776,69.9295393 40.7898029,69.9295393 L40.7898029,69.9295393 Z M40.7898029,93.2413283 C44.0097438,93.2413283 46.6177502,95.8493347 46.6177502,99.0692756 C46.6177502,102.286303 44.0097438,104.891395 40.7898029,104.891395 C37.572776,104.891395 34.9647696,102.283389 34.9647696,99.0692756 C34.9647696,95.8464208 37.572776,93.2413283 40.7898029,93.2413283 L40.7898029,93.2413283 Z M64.101592,81.5854338 C67.3186189,81.5854338 69.9295393,84.1934402 69.9295393,87.4133811 C69.9295393,90.630408 67.3186189,93.2413283 64.101592,93.2413283 C60.8816511,93.2413283 58.2736447,90.630408 58.2736447,87.4133811 C58.2736447,84.1905262 60.8816511,81.5854338 64.101592,81.5854338 L64.101592,81.5854338 Z M64.101592,104.891395 C67.3186189,104.891395 69.9295393,107.502315 69.9295393,110.719342 C69.9295393,113.939283 67.3186189,116.547289 64.101592,116.547289 C60.8816511,116.547289 58.2736447,113.939283 58.2736447,110.719342 C58.2736447,107.502315 60.8816511,104.891395 64.101592,104.891395 L64.101592,104.891395 Z M87.4075531,69.9295393 C90.627494,69.9295393 93.2355004,72.5404596 93.2355004,75.7574865 C93.2355004,78.9774274 90.627494,81.5854338 87.4075531,81.5854338 C84.1905262,81.5854338 81.5825198,78.9774274 81.5825198,75.7574865 C81.5825198,72.5404596 84.1934402,69.9295393 87.4075531,69.9295393 L87.4075531,69.9295393 Z M87.4075531,93.2413283 C90.627494,93.2413283 93.2355004,95.8493347 93.2355004,99.0692756 C93.2355004,102.286303 90.627494,104.891395 87.4075531,104.891395 C84.1905262,104.891395 81.5825198,102.283389 81.5825198,99.0692756 C81.5825198,95.8464208 84.1934402,93.2413283 87.4075531,93.2413283 L87.4075531,93.2413283 Z" id="snow"></path>
            </g>
        </g>
    </g>
</svg>