<?xml version="1.0" encoding="UTF-8" standalone="no"?>
<svg width="135px" height="135px" viewBox="0 0 135 135" version="1.1" xmlns="http://www.w3.org/2000/svg" xmlns:xlink="http://www.w3.org/1999/xlink" xmlns:sketch="http://www.bohemiancoding.com/sketch/ns">
    <!-- Generator: Sketch 3.4 (15588) - http://www.bohemiancoding.com/sketch -->
    <title>thunder</title>
    <desc>Created with Sketch.</desc>
    <defs></defs>
    <g id="Page-1" stroke="none" stroke-width="1" fill="none" fill-rule="evenodd" sketch:type="MSPage">
        <g id="Cloud-Lightning" sketch:type="MSLayerGroup" fill="#FFFFFF">
            <g id="Layer_1" sketch:type="MSShapeGroup">
                <path d="M98.1754023,98.1846077 L94.916697,98.1846077 L105.917129,84.6465588 C115.677903,81.4031957 122.723088,72.2100873 122.723088,61.3630785 C122.723088,47.8066188 111.73493,36.8215292 98.1784708,36.8215292 C93.2658651,36.8215292 88.7184062,38.2943904 84.8828303,40.7798436 C81.1024866,24.4679062 66.5518456,12.2738431 49.0892354,12.2738431 C28.7576143,12.2738431 12.2738431,28.7576143 12.2738431,49.0953723 C12.2738431,65.8062097 23.4184926,79.8965815 38.6748795,84.394945 L34.535526,95.9845213 C14.5291617,89.7831621 -1.42108547e-14,71.136126 -1.42108547e-14,49.0923038 C-1.42108547e-14,21.982453 21.9793845,2.13162821e-14 49.0892354,2.13162821e-14 C67.5122738,2.13162821e-14 83.5449814,10.1627421 91.94029,25.1736522 C93.977748,24.8238476 96.0428221,24.5446177 98.1784708,24.5446177 C118.51316,24.5446177 134.996932,41.0253205 134.996932,61.36001 C134.996932,81.6946995 118.510092,98.1846077 98.1754023,98.1846077 L98.1754023,98.1846077 Z M61.36001,55.2261569 L92.0384808,55.2261569 L73.6307846,85.9107646 L95.1069415,85.9107646 L55.2230885,135 L66.2695472,98.1846077 L46.0177062,98.1846077 L61.36001,55.2261569 L61.36001,55.2261569 Z" id="thunder"></path>
            </g>
        </g>
    </g>
</svg>